<svg width="56" height="56" viewBox="0 0 56 56" fill="none" xmlns="http://www.w3.org/2000/svg">
<g clip-path="url(#clip0_1166_52)">
<path d="M56 0H0V56H56V0Z" fill="#7D3DAF"/>
<path d="M39.6462 21.0103L39.639 20.9815C39.0555 18.6226 36.4248 16.0913 34.009 15.5647L33.9817 15.5591C30.0742 14.8136 26.1122 14.8136 22.2055 15.5591L22.1775 15.5647C19.7624 16.0913 17.1318 18.6226 16.5475 20.9815L16.541 21.0103C15.8197 24.3047 15.8197 27.6455 16.541 30.9398L16.5475 30.9687C17.1068 33.2269 19.5416 35.6419 21.8673 36.306V38.9392C21.8673 39.8923 23.0287 40.3604 23.6892 39.6727L26.3571 36.8994C26.9357 36.9318 27.5147 36.9498 28.0936 36.9498C30.0606 36.9498 32.0284 36.7639 33.9817 36.3912L34.009 36.3855C36.4248 35.8589 39.0555 33.3277 39.639 30.9687L39.6462 30.9399C40.3676 27.6455 40.3676 24.3047 39.6462 21.0103ZM37.5349 30.4621C37.1454 32.001 35.148 33.9143 33.5609 34.2678C31.4832 34.6629 29.3891 34.8318 27.2971 34.7738C27.2555 34.7727 27.2155 34.7888 27.1865 34.8186C26.8896 35.1234 25.2385 36.8183 25.2385 36.8183L23.1666 38.9448C23.0151 39.1027 22.749 38.9953 22.749 38.7773V34.4151C22.749 34.3431 22.6975 34.2818 22.6267 34.268C22.6263 34.2679 22.6259 34.2678 22.6255 34.2677C21.0385 33.9142 19.0418 32.001 18.6515 30.462C18.0022 27.4843 18.0022 24.4657 18.6515 21.488C19.0418 19.949 21.0385 18.0357 22.6255 17.6823C26.2541 16.9921 29.9331 16.9921 33.5609 17.6823C35.1488 18.0357 37.1454 19.949 37.5349 21.488C38.1849 24.4658 38.1849 27.4844 37.5349 30.4621Z" fill="white"/>
<path d="M31.5461 32.4757C31.3021 32.4016 31.0696 32.3519 30.8536 32.2623C28.6161 31.3339 26.5568 30.1363 24.9255 28.3003C23.9979 27.2563 23.2719 26.0777 22.6582 24.8303C22.3671 24.2388 22.1218 23.6241 21.8718 23.0134C21.6439 22.4565 21.9797 21.8811 22.3332 21.4615C22.665 21.0677 23.0919 20.7663 23.5542 20.5442C23.915 20.3709 24.271 20.4708 24.5346 20.7767C25.1043 21.438 25.6276 22.133 26.0514 22.8996C26.312 23.371 26.2405 23.9473 25.7682 24.2682C25.6534 24.3462 25.5488 24.4377 25.4419 24.5258C25.3481 24.603 25.2599 24.681 25.1956 24.7855C25.0781 24.9767 25.0725 25.2023 25.1481 25.4102C25.7305 27.0107 26.7122 28.2553 28.3231 28.9256C28.5809 29.0329 28.8398 29.1577 29.1368 29.1231C29.6341 29.065 29.7951 28.5195 30.1436 28.2344C30.4843 27.9559 30.9196 27.9522 31.2866 28.1844C31.6536 28.4167 32.0094 28.6661 32.363 28.9181C32.7102 29.1654 33.0558 29.4074 33.376 29.6894C33.6839 29.9606 33.7899 30.3163 33.6166 30.6843C33.2991 31.3582 32.8373 31.9189 32.1711 32.2768C31.9829 32.3777 31.7583 32.4104 31.5461 32.4757C31.7583 32.4104 31.3021 32.4016 31.5461 32.4757Z" fill="white"/>
<path d="M28.0997 19.7734C31.0265 19.8554 33.4304 21.7978 33.9456 24.6914C34.0333 25.1844 34.0646 25.6885 34.1036 26.1889C34.12 26.3994 34.0009 26.5993 33.7737 26.6021C33.5391 26.6049 33.4335 26.4086 33.4183 26.1982C33.3882 25.7817 33.3672 25.3634 33.3099 24.9503C33.0069 22.7701 31.2683 20.9663 29.0982 20.5792C28.7716 20.5209 28.4374 20.5056 28.1066 20.4709C27.8975 20.449 27.6236 20.4363 27.5772 20.1764C27.5384 19.9584 27.7223 19.7849 27.9298 19.7738C27.9863 19.7706 28.043 19.7732 28.0997 19.7734C28.043 19.7732 31.0265 19.8554 28.0997 19.7734Z" fill="white"/>
<path d="M32.5479 25.5395C32.543 25.576 32.5405 25.6619 32.5191 25.7429C32.4414 26.0367 31.9959 26.0735 31.8933 25.777C31.8629 25.689 31.8584 25.5888 31.8582 25.4941C31.8572 24.8742 31.7224 24.2549 31.4098 23.7156C31.0885 23.1612 30.5975 22.6952 30.0217 22.4132C29.6735 22.2427 29.297 22.1368 28.9154 22.0736C28.7486 22.046 28.58 22.0293 28.4124 22.006C28.2093 21.9777 28.1008 21.8483 28.1105 21.6482C28.1194 21.4606 28.2565 21.3257 28.4609 21.3372C29.1326 21.3754 29.7813 21.5205 30.3785 21.8368C31.5928 22.4798 32.2865 23.4949 32.4889 24.8503C32.4981 24.9117 32.5128 24.9725 32.5175 25.0342C32.5289 25.1864 32.5361 25.3388 32.5479 25.5395C32.5361 25.3388 32.543 25.576 32.5479 25.5395Z" fill="white"/>
<path d="M30.7271 25.4686C30.4822 25.473 30.3512 25.3375 30.3259 25.1129C30.3084 24.9564 30.2945 24.7978 30.2572 24.6455C30.1836 24.3456 30.0242 24.0676 29.7718 23.8838C29.6527 23.797 29.5178 23.7337 29.3764 23.6929C29.1967 23.6411 29.0102 23.6554 28.831 23.6114C28.6364 23.5637 28.5287 23.4062 28.5594 23.2236C28.5872 23.0574 28.7488 22.9277 28.9304 22.9409C30.0651 23.0228 30.8761 23.6094 30.9919 24.9453C31 25.0395 31.0097 25.1392 30.9887 25.2293C30.9529 25.3837 30.8386 25.4611 30.7271 25.4686C30.8386 25.4611 30.4822 25.473 30.7271 25.4686Z" fill="white"/>
</g>
<defs>
<clipPath id="clip0_1166_52">
<rect width="56" height="56" fill="white"/>
</clipPath>
</defs>
</svg>
