<svg width="54" height="54" viewBox="0 0 54 54" fill="none" xmlns="http://www.w3.org/2000/svg">
<g clip-path="url(#clip0_1168_49)">
<path d="M54 0H0V54H54V0Z" fill="#1BD741"/>
<path d="M15 39.012L16.6808 33.0457C15.6 31.2106 15.0309 29.1226 15.0309 26.9776C15.0309 20.3731 20.4071 15 27.0155 15C33.6238 15 39 20.3731 39 26.9776C39 33.582 33.6238 38.9552 27.0155 38.9552C24.9564 38.9552 22.9401 38.4284 21.1564 37.4281L15 39.012ZM21.4711 35.2491L21.838 35.473C23.3931 36.4218 25.1835 36.9234 27.0155 36.9234C32.5028 36.9234 36.967 32.4617 36.967 26.9776C36.967 21.4935 32.5028 17.0318 27.0155 17.0318C21.5281 17.0318 17.0639 21.4935 17.0639 26.9776C17.0639 28.8884 17.6073 30.7441 18.6352 32.3438L18.8823 32.7283L17.9143 36.1641L21.4711 35.2491Z" fill="white"/>
<path d="M23.649 21.4028L22.8713 21.3604C22.627 21.3471 22.3874 21.4287 22.2028 21.589C21.8258 21.9162 21.223 22.5487 21.0378 23.373C20.7617 24.6021 21.1884 26.1071 22.2928 27.6122C23.3972 29.1172 25.4552 31.5253 29.0945 32.5537C30.2672 32.8851 31.1897 32.6617 31.9015 32.2067C32.4653 31.8463 32.8539 31.2678 32.9939 30.6139L33.1181 30.0343C33.1575 29.8501 33.0639 29.6632 32.8927 29.5843L30.2645 28.3736C30.0939 28.295 29.8916 28.3447 29.7768 28.4933L28.745 29.8301C28.6671 29.9311 28.5337 29.9711 28.4132 29.9288C27.7066 29.6806 25.3398 28.6899 24.0411 26.1898C23.9848 26.0813 23.9988 25.9497 24.0787 25.8572L25.0647 24.7172C25.1655 24.6008 25.1909 24.4371 25.1304 24.2956L23.9975 21.6467C23.9372 21.5057 23.802 21.4111 23.649 21.4028Z" fill="white"/>
</g>
<defs>
<clipPath id="clip0_1168_49">
<rect width="54" height="54" fill="white"/>
</clipPath>
</defs>
</svg>
